<?xml version="1.0" encoding="UTF-8"?>
<svg id="Layer_1" data-name="Layer 1" xmlns="http://www.w3.org/2000/svg" viewBox="0 0 157.8716 160">
  <defs>
    <style>
      .cls-1 {
        fill: #f1f1f1;
      }

      .cls-2 {
        fill: #3f3f3f;
      }

      .cls-3 {
        fill: #2a2828;
      }

      .cls-4 {
        fill: #582b2b;
      }

      .cls-5 {
        fill: #c4c0bf;
      }

      .cls-6 {
        fill: #ddd2d3;
      }

      .cls-7 {
        fill: #61191b;
      }

      .cls-8 {
        fill: #6d6d6d;
      }

      .cls-9 {
        fill: #d8222d;
      }

      .cls-10 {
        fill: #e9e3e2;
      }

      .cls-11 {
        fill: #737272;
      }

      .cls-12 {
        fill: #d6d6d6;
      }

      .cls-13 {
        fill: #f1eeee;
      }

      .cls-14 {
        fill: #e9e4e3;
      }

      .cls-15 {
        fill: #e9e4e2;
      }

      .cls-16 {
        fill: #eaeaea;
      }

      .cls-17 {
        fill: #474747;
      }

      .cls-18 {
        fill: gray;
      }

      .cls-19 {
        fill: #9c9c9c;
      }

      .cls-20 {
        fill: #545454;
      }

      .cls-21 {
        fill: #621f22;
      }

      .cls-22 {
        fill: #363636;
      }

      .cls-23 {
        fill: #727272;
      }

      .cls-24 {
        fill: #db2229;
      }

      .cls-25 {
        fill: #f9f8f8;
      }

      .cls-26 {
        fill: #eeeaeb;
      }

      .cls-27 {
        fill: #424141;
      }

      .cls-28 {
        fill: #7a7a7a;
      }

      .cls-29 {
        fill: #e4e4e4;
      }

      .cls-30 {
        fill: #e11f29;
      }

      .cls-31 {
        fill: #f6f6f6;
      }

      .cls-32 {
        fill: #ebebeb;
      }

      .cls-33 {
        fill: #f4f2f4;
      }

      .cls-34 {
        fill: #454545;
      }

      .cls-35 {
        fill: #661c1d;
      }

      .cls-36 {
        fill: #f3f2f3;
      }

      .cls-37 {
        fill: #656663;
      }

      .cls-38 {
        fill: #c32a34;
      }

      .cls-39 {
        fill: #d1cfd0;
      }

      .cls-40 {
        fill: #bcbbbb;
      }

      .cls-41 {
        fill: #b7b4b5;
      }

      .cls-42 {
        fill: #7a7a79;
      }

      .cls-43 {
        fill: #fdfcfd;
      }

      .cls-44 {
        fill: #4d1b1c;
      }

      .cls-45 {
        fill: #f0eaeb;
      }

      .cls-46 {
        fill: #e4e3e4;
      }

      .cls-47 {
        fill: #3e3e3e;
      }

      .cls-48 {
        fill: #4d4d4d;
      }

      .cls-49 {
        fill: #f2eeed;
      }

      .cls-50 {
        fill: #f6f4f3;
      }

      .cls-51 {
        fill: #757575;
      }

      .cls-52 {
        fill: #d7ced0;
      }

      .cls-53 {
        fill: #d4272f;
      }

      .cls-54 {
        fill: #c4c4c4;
      }

      .cls-55 {
        fill: #f1f0f0;
      }

      .cls-56 {
        fill: #696969;
      }

      .cls-57 {
        fill: #f6f4f5;
      }

      .cls-58 {
        fill: #272727;
      }

      .cls-59 {
        fill: #2f2d2e;
      }

      .cls-60 {
        fill: #f0eff0;
      }

      .cls-61 {
        fill: #5d5d5d;
      }

      .cls-62 {
        fill: #d5d3d3;
      }

      .cls-63 {
        fill: #611a1d;
      }

      .cls-64 {
        fill: #4f4e4e;
      }

      .cls-65 {
        fill: #4f4f4f;
      }

      .cls-66 {
        fill: #656563;
      }

      .cls-67 {
        fill: #e81e27;
      }

      .cls-68 {
        fill: #ea1d27;
      }

      .cls-69 {
        fill: #797979;
      }

      .cls-70 {
        fill: #e8e7e7;
      }

      .cls-71 {
        fill: #636363;
      }

      .cls-72 {
        fill: #ed1d25;
      }

      .cls-73 {
        fill: #fdfdfc;
      }

      .cls-74 {
        fill: #242122;
      }

      .cls-75 {
        fill: #313231;
      }

      .cls-76 {
        fill: #f5f1f1;
      }

      .cls-77 {
        fill: #464646;
      }

      .cls-78 {
        fill: #262525;
      }

      .cls-79 {
        fill: #242223;
      }

      .cls-80 {
        fill: #3b393a;
      }

      .cls-81 {
        fill: #d6ccca;
      }

      .cls-82 {
        fill: #252424;
      }

      .cls-83 {
        fill: #757474;
      }

      .cls-84 {
        fill: #f5f4f4;
      }

      .cls-85 {
        fill: #454343;
      }

      .cls-86 {
        fill: #3a3334;
      }

      .cls-87 {
        fill: #f9f9f9;
      }

      .cls-88 {
        fill: #f0f0f0;
      }

      .cls-89 {
        fill: #f3f1f2;
      }

      .cls-90 {
        fill: #f2efee;
      }

      .cls-91 {
        fill: #eeeded;
      }

      .cls-92 {
        fill: #fafafa;
      }

      .cls-93 {
        fill: #696869;
      }

      .cls-94 {
        fill: #7c7a7a;
      }

      .cls-95 {
        fill: #f2f0f0;
      }

      .cls-96 {
        fill: #272626;
      }

      .cls-97 {
        fill: #d32631;
      }

      .cls-98 {
        fill: #959595;
      }

      .cls-99 {
        fill: #dcd5d5;
      }

      .cls-100 {
        fill: #928d8d;
      }

      .cls-101 {
        fill: #f7f7f7;
      }

      .cls-102 {
        fill: #f4f2f1;
      }

      .cls-103 {
        fill: #968788;
      }

      .cls-104 {
        fill: #282828;
      }

      .cls-105 {
        fill: #f5f2f2;
      }

      .cls-106 {
        fill: #232122;
      }

      .cls-107 {
        fill: #646965;
      }

      .cls-108 {
        fill: #6d2427;
      }

      .cls-109 {
        fill: #d5d5d5;
      }

      .cls-110 {
        fill: #dbdadb;
      }

      .cls-111 {
        fill: #f6f5f5;
      }

      .cls-112 {
        fill: #f2f2f2;
      }

      .cls-113 {
        fill: #632123;
      }

      .cls-114 {
        fill: #6d6c6c;
      }

      .cls-115 {
        fill: #f5f5f5;
      }

      .cls-116 {
        fill: #383838;
      }

      .cls-117 {
        fill: #f6f7f7;
      }

      .cls-118 {
        fill: #632227;
      }

      .cls-119 {
        fill: #949494;
      }

      .cls-120 {
        fill: #838383;
      }

      .cls-121 {
        fill: #464443;
      }

      .cls-122 {
        fill: #f3f3f3;
      }

      .cls-123 {
        fill: #fbfbfb;
      }

      .cls-124 {
        fill: #fcfcfc;
      }

      .cls-125 {
        fill: #242222;
      }

      .cls-126 {
        fill: #bcbaba;
      }

      .cls-127 {
        fill: #272728;
      }

      .cls-128 {
        fill: #ddd2d1;
      }

      .cls-129 {
        fill: #454444;
      }

      .cls-130 {
        fill: #b6adac;
      }

      .cls-131 {
        fill: #eeeae9;
      }

      .cls-132 {
        fill: #e71f29;
      }

      .cls-133 {
        fill: #ededed;
      }

      .cls-134 {
        fill: #e71f26;
      }

      .cls-135 {
        fill: #787878;
      }

      .cls-136 {
        fill: #f9f7f8;
      }

      .cls-137 {
        fill: #242022;
      }

      .cls-138 {
        fill: #d3d3d3;
      }

      .cls-139 {
        fill: #f6f4f4;
      }

      .cls-140 {
        fill: #d1d1d1;
      }

      .cls-141 {
        fill: #484848;
      }

      .cls-142 {
        fill: #eee;
      }

      .cls-143 {
        fill: #efeeef;
      }

      .cls-144 {
        fill: #262425;
      }

      .cls-145 {
        fill: #272526;
      }

      .cls-146 {
        fill: #7e7d7f;
      }

      .cls-147 {
        fill: #ececec;
      }

      .cls-148 {
        fill: #fdfdfd;
      }
    </style>
  </defs>
  <path class="cls-106" d="M93.8662,49.4547c1.6875-1.1975,3.1644-1.7814,1.2229.4252-1.6182.9493-3.1397,2.0379-5.2217,1.9778-1.8406-.0531-3.2901-1.4962-2.9556-3.4351.7446-4.3153,2.7601-7.2353,2.8257-10.4407-1.3615-.2009-2.3527.6264-3.2484,1.6046-3.1063,3.3923-5.2381,7.3983-7.1557,11.6682l-4.6711.0462,13.5674-44.9981,6.286-1.5469-13.0159,38.4354c1.0891-.3233,1.4954-1.3314,2.0766-2.1156,1.6123-2.1752,3.4391-4.0322,5.9756-5.1193,1.6705-.7159,4.2276-.5786,5.1489,1.115.8353,1.5355.0578,3.5051-.5239,4.9369l-2.3743,5.8443c-.2662.6551-.3278,1.7152.3747,2.1105.4256.18,1.2564-.5328,1.6887-.5083Z"/>
  <path class="cls-125" d="M64.9488,49.7427c3.1413.127,5.3711-3.3413,5.9441-1.9234.4761,1.1781-9.2907,6.8239-12.9243,2.1868-1.0518-1.3423-1.2431-3.1951-.6532-5.0315,2.8741-8.9473,14.2628-11.3445,16.6687-8.1237.6523.8733-.8606,2.7594-1.7314,2.1492-1.1933-.8362-2.0366-1.9413-3.4456-1.9935-3.6809-.1364-5.9501,4.8735-6.7339,9.1371-.331,1.8007.7766,3.514,2.8755,3.5989Z"/>
  <path class="cls-74" d="M47.8491,48.7449c1.0624,1.6259,5.0706-2.5735,5.0268-.9022-.0272,1.0367-6.7066,5.6178-9.1914,3.2397-.6151-.5887-1.0349-1.9992-.7112-3.0835l3.6215-12.1309c1.8604-.0584,3.3475-.1817,5.3674-.3747l-4.2341,11.8129c-.171.4772-.0927,1.1117.1209,1.4387Z"/>
  <path class="cls-79" d="M111.1046,47.8408c.1583.8123-7.6104,6.1853-9.6005,2.7778-.6683-1.1443-.4252-2.9154-.0302-4.1863l3.2571-10.4811,5.3317-.3853-4.1013,11.3386c-.1842.5092-.4036,1.7646.1708,2.0346,2.141,1.0067,4.6053-2.9816,4.9723-1.0982Z"/>
  <circle class="cls-78" cx="52.2541" cy="27.5702" r="3.0294"/>
  <circle class="cls-104" cx="110.3891" cy="27.5944" r="3.0264"/>
  <path class="cls-17" d="M95.0891,49.8799c.0025-.4838.4629-.6792.5654-1.3088-.678.6183-1.131.9208-1.7883.8836l2.6769-2.5536.9499.8646c-.7098.8632-1.5032,1.5858-2.4039,2.1142Z"/>
  <g>
    <path class="cls-2" d="M143.641,49.5751c.1062-.2246.3472-.5252.306-.6818-.0519-.1975-.5433-.297-.6537-.3994.4323-.3198,1.29-1.5214,1.7812-.4903.4025.8448-.9635,1.3025-1.4335,1.5716Z"/>
    <path class="cls-137" d="M127.5846,47.651c-.3356-.1249-2.7895,2.3782-5.342,2.5963-.6882-1.1907-.5023-2.6182-.144-3.897l3.3912-12.1055c8.1683-7.882,16.706-20.8789,15.1023-32.3061-.1112-.7925-.6381-1.4873-1.1045-1.7034-4.7674-2.2085-11.4493,13.0002-13.8016,18.7508-2.8537,6.9766-4.8308,14.0369-7.1733,21.2218-.4824,1.4794-3.378,2.4494-3.2483,3.5003.0298.2416.3512.5319.5501.563.6564.1027,1.2297-.95,2.0355-.6262-.3977,2.1857-1.3864,4.5158-.5068,6.6884,1.8306,4.522,12.9638-1.6695,10.2415-2.6825ZM134.6346,9.1387c.9917-2.4442,2.0332-4.6951,3.5118-6.8137.2673-.3019.5758-.443.8273-.4078.2673.0374.5357.3039.5741.726.7553,8.3034-6.16,21.7661-12.5546,28.1977,2.2871-7.6243,4.7641-14.6108,7.6415-21.7022Z"/>
    <path class="cls-74" d="M142.6185,34.0531c6.1308-5.7247,10.7831-12.6802,13.6648-20.5857,1.5497-4.2512,2.5344-12.0306.1947-13.2162-2.3002-1.1655-5.1567,2.3137-7.0467,5.2351-6.5959,10.1949-10.1616,23.1488-13.9201,34.7569-.4485,1.3852-2.414,2.0264-3.176,3.0497-.3897.5233.3498,1.1301.7605,1.0073.4989-.1491.9606-.5514,1.5736-1.1263.156,2.697-1.7781,5.9146.2181,7.799,2.5838,2.4391,5.9075.2315,8.7536-1.3979,1.266-.8612,1.1103-1.8093-.3477-1.0813-1.0215.7557-2.4276,1.7217-3.6557,1.7921-.8878.0509-1.0032-1.5454-.8072-2.268l3.7881-13.9647ZM146.9616,21.7818c2.0163-6.3478,4.298-12.4751,7.4022-18.318.4212-.7927,1.1413-1.544,2.0082-1.5115.4763,2.5824.1838,4.9444-.4898,7.4077-2.1586,7.8945-5.968,15.1684-11.7782,21.4179l2.8576-8.9961Z"/>
  </g>
  <path class="cls-137" d="M12.6098,28.9603c-.2256.9952-.0954,1.454.3907,1.3764C18.6429,19.3355,30.212-2.27,43.387.6131c4.5004.9848,7.3764,4.8084,6.85,9.3819-1.4472,12.5733-15.9419,19.2752-27.5336,21.8248-.9615.2115-1.8587.5595-2.466,1.4745,4.0763,4.1362,8.4631,7.583,12.9832,11.0758l5.148,3.9779-3.3095,4.2559c-4.669-3.4358-9.1279-6.7928-13.4732-10.5788-2.826-2.4623-6.7745-5.6241-5.9025-8.1294.2383-.6847,1.2138-1.41,2.2389-1.7413,6.6523-2.1495,12.7926-5.253,17.8917-10.0474,4.7682-4.4834,9.8134-11.268,8.4973-17.5904-.4165-2.0009-2.3868-2.9555-4.3948-2.7302-11.4567,1.2856-25.1445,27.0914-29.5987,38.3119l-5.0058,12.6102-5.312-3.6149C6.0791,33.6985,10.8514,18.1945,14.7307,2.2332l6.6204-2.2332-8.7414,28.9603Z"/>
  <g>
    <path class="cls-17" d="M87.1383,159.4334c-.1287-.2895-.372-.4053-.6465-.4305.3076-1.0649.1515-1.5386-.4684-1.4208l-.4183-.7383.9005-.7839c.5599.1194,1.2026.3414,1.643.8849.4281.5284.4122,1.14.2191,1.6059-.2318.5593-.7084.6997-1.2294.8828Z"/>
    <g>
      <path class="cls-34" d="M114.5197,143.1404c-.4972.5105-.7107-.0036-.6405-1.5424l-.7356-.2615.3652-38.0348,5.0769-8.7601c-5.8764-6.5276-13.8065-11.4792-22.274-14.1799l-1.4257-1.2006c-.2191-.4351.1721-.5956,1.1737-.4816,10.5115,3.2054,19.9046,9.3914,26.6248,18.2374.8151,1.0729.8495,2.3866-.1313,3.2092-.7185.6027-2.0234.6492-2.8336-.188l-1.4061-1.453-2.159,3.1837c-.8365,1.2336-1.3045,2.2912-1.3046,3.8988l-.0025,36.4598-.3278,1.113Z"/>
      <path class="cls-60" d="M122.3124,97.9234c.465.5971-.1156,1.3616-.4859,1.5645-1.3814.757-2.9881-1.4276-2.8433-2.1863.1308-.6854.584-1.3929,1.2064-2.104l2.1228,2.7259Z"/>
    </g>
    <g>
      <path class="cls-77" d="M84.9761,154.6129c.3811-.4462.6341-.0479.7592,1.1951.1358.2253.5308.2008.7703.2518.4691.4307.169.692-.9005.7839.5545.3949.85,1.1146.8867,2.1592.698-.3673,1.0063-.325.6465.4305-.861.3026-1.8567.5756-2.9565.5664l-11.4874-.0962c-1.1922-.01-2.8543-.4296-3.1554-1.6343-.3852-1.5409,1.2562-1.9299,2.2325-2.4888.601-.3441.1809-1.7881-.1722-2.2954l.5325-.5278.8983.1302c.5837,1.6573.8716,3.4047.8637,5.242l10.2328.0223.1041-3.2437.7455-.4951Z"/>
      <path class="cls-12" d="M86.4918,159.0029c-.2656-.0244-.5294-.0761-.919-.2324-.0844-.705-.0778-1.3353.0324-1.9268.7855-.0382,1.6856.1126,2.0881,1.0581-.4084.571-.8457.81-1.2015,1.1011Z"/>
      <path class="cls-32" d="M71.8553,156.8056c.3086.1003.3834,1.6451.2164,1.9856-.1403.2861-1.6499-.1385-1.8338-.7135-.1929-.6031,1.0305-1.4628,1.6174-1.272Z"/>
    </g>
    <g>
      <path class="cls-47" d="M51.756,82.9028c.8008-.3072.9913-.1989.5578.5732l-1.0491,1.4175c-4.5735,2.5982-8.6347,5.9865-12.196,9.8383l5.3141,8.9317.0485,36.5129c.5637,5.8349,2.9216,9.092,8.9278,9.8944l16.0869.1531c1.3095.2831,3.3737,1.197,2.6857,2.7335.2166.6633.0748.9493-.5325.5278-.7022-1.0088-2.3955-1.8599-3.9584-1.8726l-15.0369-.1227c-6.2558-.6214-9.7922-6.1134-9.7752-12.0178l.1019-35.3869-3.2341-5.3552c-.522-.8644-1.5353,2.8253-3.9115,1.6015-1.0845-.5585-1.6876-1.9773-.8341-3.1142,4.552-6.0629,10.3011-10.7939,16.8049-14.3144Z"/>
      <path class="cls-112" d="M38.8052,97.3241c.2324.7921-1.4157,2.7063-2.6657,2.2718-.5526-.1921-.8508-.9835-.5231-1.6956.468-1.0171,1.235-1.7083,1.9455-2.3486.6703.6148,1.0678,1.1742,1.2433,1.7724Z"/>
    </g>
    <g>
      <path class="cls-124" d="M94.8861,79.1611c8.5887,2.4458,16.1832,6.8469,22.516,13.078.6737.6629,2.0552,1.4804,1.8915,2.5387l-5.084,8.6911-.3304,38.1292c-.0442,5.1054-5.0431,8.7764-9.6753,8.8822l-16.2875.4301c-1.7225-.0187-2.9221,2.518-2.9403,3.7026l-.0688,4.4783-11.7976-.0257c-.3782-2.3801.3977-3.637-.978-6.1083-.6388-1.1476-1.9089-2.0498-3.4065-2.0582l-15.0597-.0841c-5.7793-.0323-9.9678-4.8208-9.9719-10.6293l-.0257-36.4833-5.5087-9.0457c4.0542-4.5062,8.6537-8.2785,14.1546-11.1807,13.124-6.9241,28.3088-8.3766,42.5723-4.3148Z"/>
      <g>
        <path class="cls-116" d="M96.0598,78.6796c-.3237.2587-.7993.282-1.1737.4816l-1.9312.2456c-12.949-3.2701-26.6856-1.9503-38.7007,3.9118l-1.9404.1573-.5578-.5732c13.4803-7.2968,29.6146-8.7026,44.3038-4.2232Z"/>
        <path class="cls-64" d="M114.5197,143.1404c-1.368,4.6448-5.5139,8.004-10.3493,8.1552-5.4509-.13-10.8689-.2584-16.254-.3853l.2294-.7441,16.295-.4331c4.3586-.5741,8.0579-2.9591,8.675-7.593l.7635-.5421c.1139.5383.0956,1.2429.6405,1.5424Z"/>
        <path class="cls-75" d="M104.1704,151.2956l-15.4361.0073c-1.4512.5808-1.7238.4499-.8179-.3926l15.8475-.0094c.2837-.0002.434.2382.4064.3946Z"/>
        <path class="cls-17" d="M87.9165,150.9104c.001.1423.0769.4184.2064.4139l.6115-.0213c-2.009.6471-3.1253,2.4345-2.999,4.5051l-.7592-1.1951c-1.7125-1.0626,1.5252-5.48,2.9403-3.7026Z"/>
        <path class="cls-63" d="M78.6176,110.5812c1.4303-.084,1.9883.0428.6988.9347l.007,8.0155c1.097.162,1.021.628.0775,1.122.3322-.0219.5987.0844.5707.3396-.823,7.5064-.5494,16.536-.2649,24.1305.0117.3115.0893,1.602.1996,1.746,8.1943.2217,16.4453.2592,24.7529.1124.284-.4666.7935-.7751,1.5287-.9256-.7702.1489-1.2784.0022-1.5247-.44l-6.7955-.122c-.5922.7322-1.1193-.4517-.8453-1.5017,1.6829-3.0072,3.2151-8.0157-2.0922-7.4712-5.7909-.3681-3.4185,5.1678-1.1624,8.1106.2335.4879-.007,1.0181-.3603,1.3884-.3796.3978-10.517.2238-10.9975-.0436-.8401-.4675-.5699-1.2772-.3004-2.0274l1.477-3.0652.0276-13.5661c-.407-.9578-.6326-1.8282-.6769-2.6111-.8069-.4409-1.7366-2.379-.6624-3.3566.4131-.3759,10.7078-.0928,11.1678.2239,1.3272.9137.4266,3.4285-1.1184,3.1234-.5568.545-.7994.3288-.4156-.3699-.5325.1018-.8992-.2374-1.1002-1.0176l-6.3427-.0421-.702,1.0689c.8482-.0283,1.4939,1.2799,1.5458,2.1577.129,5.2793.0777,10.5382-.1537,15.7767-.3752.5527-.8143.8162-1.3173.7906-.0572.2316.1706.4765.6835.7348-.1765.4703.1177.7287.8826.7753.615-1.1551,4.2368-1.0523,5.0981.03.1704-.4469.4213-.9072.632-.6222.4962.6708-.3657-.4327-.4028-.5233-.057-.1396-.0083-.3224.0706-.5176-.771-.4906-.8862-.9027-.3456-1.2362-.2501-1.9096-.3167-4.1047.0685-5.8921.6788-.1025,9.3811-.6931,9.4132-.2157.0093.1386-.1358.2877-.3252.4397.0879,1.95.0035,3.87-.2532,5.7599.4379.5263.1689,1.0798-.8068,1.6604.6392-.2255,1.1313.1629,1.4763,1.1652.6625-.9779,4.04-1.3419,4.7035-.1064,1.111.2464,1.4801-.135,1.1073-1.144l.7657-.3718c-.2044-.6588-.0157-.6151.5094-.2065.2578-.1809.6285-.3564.8311-.1845.9391,1.7799,1.6093,1.1051,2.0106-2.0245-.0779-13.0149-.1168-19.5223-.1168-19.5223l-18.8828-.054-.4343-.7384c-3.3396-.2359-6.7011-.3248-10.0846-.2669l-.236-.3146c-.1004-.4335.7449-.3811,1.0692-.1262.9062-.091,1.4525-.3492,1.639-.7746l.5938.44c.0426-1.1787,1.2087-1.1286,1.4535-.0306.1059-.9817.4493-.943.7451-.0098.5786-.558,1.0698-.5508,1.4734.0217.0513-1.0426.5455-1.0251.7356.0031.3971-.4298.7838-.4441,1.0978.0561.4267-.5686.6391-.8201.8276-.0672.0029-1.0932,1.4926-.9958,1.6816.0436.2103-.6521.7514-.7851,1.6233-.3991,2.5851.0518,5.0279-.1135,7.3283-.4961l-.0108.9212c.5929.4216,1.649.1862,1.8048-.5634l1.5866.5878c.4865-.555.7089-.529.6672.078l.3764-.7437c.6049-.0661,5.8422-.1656,6.0654.0397.132.1214.2422.2659.342.4197.1206,7.8616.0413,15.688-.238,23.4792-.0019,2.2262-3.1425,5.577-5.8466,5.5732l-26.157-.1809c-.274-.0667-.3966-.1873-.3678-.3618l-.7375-.3457.063-27.4258c-.6408-.2817-.4792-.4913.4849-.6289.085-2.5889.0045-5.1188-.2414-7.5896-1.4298.2714-2.0183.0952-1.7655-.5286.1612-.8931,1.6473-1.4339,2.1207-.4962Z"/>
        <path class="cls-22" d="M46.9595,119.8906c.1645.2518.0375.8807.0376,1.1844.5572-.0329.6941.3098.713.8088-.1599,7.4722-.0235,14.9292.4093,22.3711.5629-.2352.9255.1398,1.0877,1.125.6818-.8053,1.2314-.1834.7086.6953.2961.0642.6855.0323,1.1681-.0958l.3242.8954c.402-1.0442,1.3889-.6529,1.4487.4059.9239.2589,1.8199.1902,2.9985.4846-1.1323.3962-2.2806.1338-3.2907.2995-4.1373-.0058-6.3553-5.0864-6.3531-8.5224l.0481-36.4691c1.053,4.3965-.4208,15.102.7,16.8173Z"/>
        <path class="cls-86" d="M94.9329,81.919c-.2211.4008-.7051.366-1.1123.3726-.1035.3239-.2309.321-.3809.0059-.8352-.3389-1.344-.2157-1.5263.3698l-.3597-.7862c-.2499,1.0496-1.4289.7217-1.4216-.3396-.434.5783-.6527.7594-.7831-.0185-.562.8412-1.0971.5606-1.4306-.3478-.0245,1.0129-.491.966-.7473-.0236-.5784.8276-1.2879.6612-1.4582-.3308.0045,1.0373-.5433.9458-.7704-.0236-.4568,1.0675-1.3528.845-1.4263-.2952-.354.896-.4958.8845-.8045-.0315-.0116,1.0774-1.218,1.0169-1.4367-.0201-.105.322-.2283.3172-.3689-.0004-.0006,1.0798-1.2325,1.0341-1.4756.0001-.1086.3211-.2326.3152-.3713-.0036-.4581-.2552-1.0987-.3712-1.8205-.3829l-4.5313-.0736c.1501-.1093.4489-.3137.8043-.3103l9.9937.0955c3.9893.0381,7.8136,1.0555,11.4275,2.1437Z"/>
        <path class="cls-92" d="M101.2497,112.866c.6242-.357.7941-.1221.32.4282-.1659.3656-.3366.7443-.3836,1.1501-.3501.8896-.4881,1.2253-1.0686.2866-6.5827-3.5008-14.0986-5.3758-21.4999-4.1497-.6144.1018-1.4436.7132-2.1207.4962.0895.5737-.7764.6621-1.1591.3109l-.7448.6538c-.6426-1.4232-.4764-3.8455-.3404-5.5446.0067-.0841.1706-.1556.3794-.2235,5.8158-.9023,11.5754.3793,17.2067,1.6848l8.9446,4.1769.4665.7302Z"/>
        <path class="cls-139" d="M83.8387,143.062c.2828-.3468.7916-1.1518.7894-1.7276l-.0571-15.0847-.8071-1.9127c-.5025-2.5491,4.2566,1.2333,4.3371,1.5989-.2385,2.246-.3101,4.5324-.2149,6.8591.4685.348.4867,1.693-.022,2.0097-.1066,2.389-.0321,4.7635.2235,7.1236l-3.4966,1.744c-.2613.7552-1.043.1015-.7523-.6102Z"/>
        <path class="cls-53" d="M97.8677,145.4943l6.8356.3946c.2411.1018.2825.6932.0114.8606l-7.4882.0568c-1.097-.989-1.7498-2.02-1.1108-3.5274.6791-.902,2.0502-4.5862,1.1677-5.4401-.3175-.3073-3.9744-.3405-4.3616-.0347-.1616.1276-.6984,2.4699-.6472,2.5959,1.6466,1.7084,4.1892,5.1607,1.2106,6.4646l-12.5835-.2223c-.1559-1.9893.0714-5.2538,2.3685-5.7625l.0119-13.5933c-1.0369.3885-1.7154-1.5389-.7992-2.0874l.4545-.4921c.2773.7235,1.0127,1.5183,1.0092,2.5917l-.0435,13.6672-1.9279,4.3189,11.6818-.0022-2.3446-4.0536c-.7412-1.2815-.0381-3.1248-.0712-4.7218l3.687-.299,3.4702.2121c1.719,5.1436-1.839,7.8336-1.2126,8.6863.1232.1677.4005.3715.6818.3878Z"/>
        <path class="cls-108" d="M63.8952,118.0863l.8113.3479,13.2609.0227.5364.7387c-.3267.1015-.4191.4412-.4849.6289-.5442.0023-1.0938.0941-1.5414.4137.0568,1.0882-1.1709,1.0115-1.4122-.0188l-.4655.7056c-.2368-.5616-.8409-.9009-1.8121-1.0177-.5417.233-1.2019.3094-1.9804.2292l-.3065.5166c-.4372-.4252-1.1498-.6686-2.1377-.7304-.0991.3116-.2267.4539-.3828.4268-.7438.6892-1.0674.621-1.4108-.3375-.0764,1.0365-.6286.898-.7863-.0858-.7246.1017-1.3461.3478-1.8645.7384l-.3975-.4571c.0223-.5802-.7554-1.0404-1.1761-1.5028-.7527-.861.1059-1.4959.8926-.6246.2143-.7715.4559-.7656.6575.006Z"/>
        <path class="cls-84" d="M87.1382,111.4049c.2209.0312.3932.065.3955.1079.1223,2.2755.1168,5.1676.011,7.4509-.004.0865-.1635.1658-.3675.243l-.667.2918c-.2717.1189-.6171-.052-.8064-.3135-.207-.0515-.3688-.1056-.3724-.1687-.1225-2.1435-.1602-5.2383-.0586-7.3733.0041-.0868.187-.1652.4209-.2411.4545-.3222.9566-.0246,1.4445.003Z"/>
        <path class="cls-111" d="M84.5826,111.0761l.5867.3656c.2907.4106.2151,6.5049.1622,7.517-.0044.085-.1661.1617-.3728.2361-.4297.0057-1.0505-.1255-1.4535.0306-.2092-.0325-.3724-.0673-.3746-.1103-.1219-2.4098-.1329-5.3957-.0261-7.8093.0039-.0871.1699-.167.3823-.2449l1.0959.0151Z"/>
        <path class="cls-55" d="M89.3332,111.7871c.2134.0203.3815.0484.3908.1035.0658.3863-.0225,6.6255-.1819,6.9342-.1236.2394-.2297.4203-.5317.4412-.1702.0719-.3363.2364-.559.2288-.2305-.0079-.3969-.211-.5387-.2849-.2049-.0523-.3649-.1069-.368-.1694-.1129-2.242-.1241-5.1119-.0108-7.3518.0044-.0861.1757-.1638.3948-.239l1.4045.3374Z"/>
        <path class="cls-93" d="M83.4867,111.061l.0185,8.1645c-.7246.2808-1.442.3346-2.2328.3345l.0033-.3759c-.0771-.6147.1816-.7946.7418-.8196l.0114-6.777.6916-.525.7662-.0016Z"/>
        <path class="cls-42" d="M85.6937,111.402l.0101,7.7831-.7451.0098.0204-6.675c.0013-.603-.1511-1.0926-.3964-1.4438.3852.0053.7656.168,1.1111.3259Z"/>
        <path class="cls-100" d="M87.9287,111.4496l-.0159,7.7602c-.164-.0854-.5671-.0768-.7356-.0031l-.039-7.8018.7905.0447Z"/>
        <path class="cls-118" d="M76.4969,111.0774c.2965.4785,1.047.5644,2.1289.2818l-.122,7.8364-.7458-.3123c.0095-2.131-.0861-4.2321-.2866-6.3032-1.2719.3675-2.1153.1979-2.5302-.5088-.8525-.5599-.6159-.7721.3967-.683.242-.1717.8548-.4084,1.1591-.3109Z"/>
        <path class="cls-114" d="M90.1518,111.8254c-.2506.3392-.4139.8259-.4053,1.4316l.0916,5.9417c-.2278-.0059-.6152-.0225-.8276.0672.231-.4068.3999-.9131.393-1.5336l-.0703-5.9453.8185.0383Z"/>
        <path class="cls-73" d="M64.9644,108.0788c.3805-.1048,1.9634-.4607,2.1696-.3119.6427.4635.9222,6.0917-1.713,5.1663l.086.5268c-.6763.4061-1.1542.9372-1.4338,1.5934.112,1.5568-.1665,2.5657-.8355,3.0268-.4689-.0042-.6153.46-.8926.6246-1.6637.9877-2.9389,2.8849-4.2789,4.8511l-8.5598-2.8389c-.3885-.1289-.6096-.5587-.6734-.7871,1.2528-1.8149,2.4951-3.631,4.1543-5.064.8461-1.2838,1.9462-2.3327,3.3004-3.1469,1.2781-1.2258,3.3377-2.1455,5.1466-2.4225-.336-1.2138,3.2385-2.6662,3.5302-1.2176Z"/>
        <path class="cls-141" d="M93.4397,82.2975c.0987.6171-.2148.753-.735.8775.0744,8.3739.0554,16.6947-.0573,24.9623.3976.2258.7411.111,1.0307-.3443l.5075.6848c.2009-.2323.3426-.1091.425.3695.4573-.737.6252-.7006,1.0383.0294.4268-.6812.5885-.2962.7347.3951.8364-.4635,1.3257-.2565,1.4736.7055.4891-.6666.599-.2922.7618.3947.5014-.5077.706-.3168.3491.3168.5301.2558.9979.2348,1.4033-.063.3543.8839.7047,1.4185,1.1984.416-.5678-.4468-.3576-.6618.3185-.3342l.4264.3325c.9473.3334-.161,2.1353-1.0649,1.8258-8.1335-4.557-17.2887-7.1112-26.6178-6.5919-.3213-.1137-.315-.2429.0037-.3872l4.4317.0191c.0742-.2754.1954-.3963.3637-.3626.0169-1.0553.8504-1.0137,1.1062-.0072.4022-.5405.6188-.7239.7317.0002.8197.3474,1.3973.2306,1.7328-.3504l.5043.7359c.2002-.9694,1.0379-.7908,1.4333.0051.1326-1.0143.5518-.9836.7529.0262.5686-.7132,1.2056-.4834,1.4369.3745.4144-.74.6352-.4225.7739.3463.8377.3186,1.3459.1925,1.5244-.3783l.3883.766.9617-.52.0376-24.216.7385-.4446c.6233.1489,1.3763-.1137,1.886.4164Z"/>
        <g>
          <path class="cls-7" d="M72.7074,79.9902c.2791-.1097.5657-.141.8644-.1478.8092-.0185,4.821-.072,5.2876.1786.1109.0595.1637.2272.1999.4257.3261,8.2105.3156,17.1248.0081,25.4593-1.3074.2588-3.1112.2728-4.4317-.0191-.3968.7431-.5897.4084-.7499-.3504-.0858-1.462-.1709-2.9494-.2552-4.4625-.5937.025-1.0872-.3254-1.4803-1.0513-.7825-.3533-1.1666-.8341-1.1522-1.4424l-1.042-.2571c-1.2276.457-1.5541-.9969-.5285-1.5793.8086-3.5319.2929-7.3395-3.8018-8.2194-.4839-.104-.9309-.1172-1.4163-.0169-1.6222.3351-13.3415,6.1951-13.535,6.9342l3.4806,8.5844-.4821.7747.2088,7.9725c.457.4594.1589,1.1569-.8945,2.0926.0232.9181-.4441,1.7629-1.4018,2.5343-.7369,1.4081-1.6543,2.2514-2.7524,2.5297-.0142,1.0332-1.7444.7608-1.8735-.0394l-.4114-.0835c-.0758-5.5737-.172-11.1516-.2886-16.7338l-4.8004-8.1482c8.3427-8.605,19.5672-13.8064,31.2483-14.9348Z"/>
          <path class="cls-68" d="M63.5043,87.2183c-4.0374.9408-9.9421,5.1785-14.817,7.3238l3.9989,10.7468c.8481,2.2792.4052,5.8033-.0302,8.1479-1.052,2.3286-3.3025,3.9805-5.1171,6.0721l-.2811-16.8966-4.501-7.1453c1.948-2.7548,4.4585-4.5987,7.2673-6.4818,8.3265-5.5822,18.1522-8.3672,28.3057-8.5805l-.0118,24.5665c-1.3066.3606-2.3659.3329-3.4876.019-.2856-.8026-.27-1.5625-.2142-2.4088.2898-4.3969-3.751-4.6208-4.0301-5.4119-.2606-.7384,2.2818-4.2186-.5781-7.8558-1.3539-1.7217-3.8744-2.708-6.5036-2.0953Z"/>
          <path class="cls-4" d="M79.4311,105.5433c0,.2159-.144.3636-.3637.3626l-.0081-25.4593.3713.0036.7378.3383c.0414,8.1033.0155,16.2086-.0778,24.3159l-.6595.4389Z"/>
        </g>
        <path class="cls-4" d="M74.6357,105.8869l-.0037.3872-.1535,4.4592c-.0109.3171.1897.5891.3586.6471.1285.0441.3105.0365.5007.0079l-.3967.683c.6774.6905.5982.9925-.3376,1.2438l-.3837-.0047c-.6057.1674-1.0359-.3931-.507-.8253-.0787-2.3518-.0211-4.668.1729-6.9487.2128.1012.522.3494.7499.3504Z"/>
        <path class="cls-130" d="M73.8857,105.5365l-.0299,6.2961c-.003.6231.0666,1.11.364,1.4779-.2047.3423-.5158.2899-.7377.2035-.3428-.1334-.5572-.5571-.7186-.7009.2002.1593.7727.126.7724-.1689l.0948-11.5702c.4672,1.4448.2624,2.9479.2552,4.4625Z"/>
        <path class="cls-133" d="M103.7674,86.3853c.0827.1018.2475.2648.3711.3113.6708.4913.8149.8323.4324,1.023.2016,7.3638.1673,14.7162-.1028,22.0573l-1.0756-.1771-.7911-.5078c-.1252-7.5942-.1826-15.2015-.1722-22.822.37-.3821.8945-.121,1.3383.1153Z"/>
        <path class="cls-122" d="M105.6398,87.4673l.6775.3659c.5232.4861.6536.9854.3912,1.4977l.031,24.8165-.3532.256c-.6143.0536-1.2008-.2203-1.5076-.7342-.8288-.0328-.886-.3064-.1716-.8209-.2353-.7942-.2384-1.6168-.0093-2.4679l-.3074-.5378c.3015-7.5792.3929-15.1417.2742-22.6875l.9753.3123Z"/>
        <path class="cls-115" d="M100.1162,84.7953c.4537.1144.5716.4911.3538,1.1301l-.0095,24.9648c-.4664.125-.9639.058-1.4924-.2012l-.3491-.3168-.3808-.5559-.0004-25.4395.3997-.2517,1.4786.6703Z"/>
        <path class="cls-87" d="M97.8378,83.7586l.4.5548.0004,25.4121-.381.252c-.5821-.083-1.0794-.2547-1.4736-.7055l-.3672-.5596.0003-25.1188.3853-.2535,1.4359.4185Z"/>
        <path class="cls-88" d="M110.8204,91.0685l.5352.7917-.0019,8.8382-.5887,1.9502-.0297,13.5498c-.5233.1492-.9749.0767-1.3674.0113l-.4826-.5542.0548-25.2702c-.0247-.6559.2688-.7949.7769-.3339l1.1034,1.0171Z"/>
        <path class="cls-16" d="M101.9414,85.5752c.7246.274.9085.6567.5519,1.1481l-.0295,20.8468c.1985.8093.1349,1.3648-.1906,1.6664l-.3849,1.4712-.3185.3342c-.2102,1.1077-1.9881.0927-1.1093-.4621-.0098-8.4633.0016-16.9249.034-25.385l.7622.0332c.1305.1437.499.2951.6847.3472Z"/>
        <path class="cls-148" d="M107.8807,88.9308l.3719.2803c.1928,8.5634.2316,17.2029.1165,25.9185-.2408.1211-.5562.1238-.9462.008l-.3296-.3301-.3537-.5606-.0313-25.0165c-.1314-.8291.2594-.929,1.1725-.2996Z"/>
        <path class="cls-148" d="M95.3883,83.0184c.0713-.0096.1769-.022.2429.0051l.3855.3417c.1257,8.3541.1202,16.9019-.0003,25.2584-.0012.0862-.1616.17-.3675.2532-.3285.1849-.7485.2226-1.0383-.0294-.2661-8.4898-.3459-17.0165-.2393-25.5801-.0134-.5442.5714-.4896,1.017-.2489Z"/>
        <path class="cls-120" d="M101.2567,85.228c-.1884-.0288-.432.1131-.432.4208l.0034,25.7492c.3645-.0252.5605-.2596.7417-.3561.0877.2266-.0028.6848-.2122.7648-.249.095-.6505-.1493-.9461-.3139l-1.4435-.8039c.2964.0327.6251.0983,1.1249-.0805l.0233-25.8131c.3094.1403.8634.1278,1.1405.4328Z"/>
        <path class="cls-83" d="M109.7171,90.0514c-.1083-.0142-.4089.1069-.4086.4125l.0595,25.7459c-.4838-.0805-.7809-.4861-1.1829-.6885.1672-8.6755.2961-17.4141.3868-26.2157.4637.1373.802.4294,1.1452.7458Z"/>
        <path class="cls-19" d="M107.8807,88.9308c-.1853-.1308-.785-.0617-.785.3782l-.0025,25.4984-.707-.404-.0689-26.5702,1.5634,1.0976Z"/>
        <path class="cls-18" d="M98.6376,84.125l-.0186,26.2472c-.1806-.1639-.5206-.3603-.7618-.3947l-.0194-26.2189.7998.3664Z"/>
        <path class="cls-51" d="M94.1881,82.6551l.3889.1138c-.1283,8.6083-.2588,17.1779-.3914,25.7089-.6008.1353-1.081-.0124-1.5381-.3405.1594-8.4578.1828-16.901.0699-25.3295l.7223-.5103.3809-.0059c.0283.1419.2233.3678.3674.3634Z"/>
        <path class="cls-98" d="M96.402,83.34l-.0184,25.9319c-.1631-.1866-.5011-.301-.7347-.3951l-.0177-25.8533.7707.3166Z"/>
        <path class="cls-71" d="M105.6398,87.4673c-.1957-.1337-.759-.0823-.7588.3706l-.0023,25.8313c-.198-.0419-.6336-.0309-.9266.0128-.2163.0323-.5782-.0266-.4743-.4472.6506-.3706.7639-.829.3398-1.3752.1105-.4473.6785-.8396.7163-1.3564.0426-.5831-.7836-.635-1.1415-.9034.1362.022.5748.0456.6646-.0887l.431-2.5292-.0503-13.5959c-.0042-1.1274-.3836-1.8294.0301-3.1059l-.3293-3.5836c.5335.2009,1.004.5021,1.5013.7707Z"/>
        <path class="cls-46" d="M82.7205,111.0626l.0357,8.0583-1.4805.0632c-.2643-2.3792-.3933-5.4684.0611-7.8332.402-.296.8979-.2873,1.3837-.2883Z"/>
        <path class="cls-110" d="M108.185,115.5212l-.7621-.3837c.1805-.1136.3959-.1164.7766-.132l.0531-25.7944.3192.0945.0038,25.784c0,.2827-.2286.4275-.3906.4316Z"/>
        <path class="cls-109" d="M95.3883,83.0184c-.1879-.1365-.84-.0586-.8395.3833l.0618,25.4457-.425-.3695.0025-25.8227c.438-.0134.8613.069,1.2002.3633Z"/>
        <path class="cls-23" d="M103.7674,86.3853c-.2664-.0438-.6547-.1278-1.0902.0645l-.0277,20.9313c-.0012.943.1651,1.6705.7429,2.2188-.3166-.0512-.8057-.1663-1.1192-.3633l.0367-22.5006c.0008-.4925-.2319-.8865-.3685-1.1607.6231.1746,1.3785.2592,1.826.8101Z"/>
        <path class="cls-18" d="M111.9228,91.8836c-.2178-.032-.3894.139-.3893.4023l.0042,8.0528c.0002.2923.3347.4063.4008.3534l-1.1736,1.9566.0555-11.5801,1.1023.8151Z"/>
        <polygon class="cls-66" points="81.2757 119.1841 80.9057 119.1842 80.8108 111.3911 81.3368 111.3509 81.2757 119.1841"/>
        <path class="cls-76" d="M103.8051,117.368l.3709.2493c.0556.4066.0889,1.4152-.2922,1.5673-.8621.3117-1.0448-.4502-1.0739-.9176-.0447-.7171.1831-1.3162.9952-.899Z"/>
        <g>
          <path class="cls-129" d="M111.0648,142.5656l.02-23.1889-2.8869.0369c-1.2383.0158-2.7303-.0722-3.6788-.0429-.0628-.5662-.1771-1.1507-.3431-1.7534-.3437.6328-.5867.4669-.3709-.2493l-.5007-.208c-.3836.4474-.9701.3551-1.7593-.2769.4575.8612-.1338,2.1787-1.0847,2.3853-.1667-.1586-.4572-.4356-.584-.345l-.6858.4896-6.1246.1604-1.5464-.3311-.6706-1.0894-.0436-5.3359c-.5664-.0739-.6935-.3934-.6537-.9917-.4533.9127-.5062.9683-.8185-.0383-.2679,1.0551-1.3736.7216-1.4045-.3374-.0203,1.0335-.5773.9368-.7905-.0447-.3538.9279-.9945.7836-1.4445-.003-.1726.595-.543.4864-1.1111-.3259-.0418,1.0633-.8709.986-1.0959-.0151.0384,1.0361-.5091.9634-.7662.0016-.2878.9456-.7476,1.0011-1.3837.2883-.0311.7175-.3181.7353-.5261.0402l-.631.6384-.0158,6.3372.7418.8175c.105-.3222.2286-.3175.37,0,.3213.1098.3153.2353-.0033.3759l-1.0692.1262c-.2874.5764-.7825.5032-.8797-.1549-.1777-2.5746-.1391-5.239-.2394-8.0536l.3172-.6449c.0863-.1754-.5996-.3142-.7837-.2516.1624-.2134.3337-.4159.536-.5803.9979-.8111,5.1871-.5472,6.7285-.4195,3.1706.2625,11.1773,2.0229,13.4883,3.9356.3814.3156.6093.7435.7471,1.2139.4382.1789.735-.0401,1.0686-.2866-.8227-.7177-.7031-1.0737.3836-1.1501,1.203-1.3095,1.4513-2.0608.745-2.254-.4592.5039-.6051.315-.4264-.3325-.8585-.2902-.5891-1.5344.3849-1.4712.0797-.4439.4527-.3228,1.1192.3633l.4368.0918c1.0755-1.2184,1.3294,2.239-.0116,2.168.6277.1375.3705,1.4147-.3398,1.3752l.4788.2636c.7242-.3599,1.0316-.3029.9221.1708.7931-.3673,1.3068-.1217,1.5076.7342.2774-.5748.5131-.4402.707.404.4611-.5572.6719-.3399.3296.3301.8682-.1618,1.1222-.0339.7621.3837.5243-.6747.9186-.4452,1.1829.6885.141-.3851.3689-.6088.6836-.6712l-.0007-12.353.7142-.537c.1147-1.3515.5059-2.0036,1.1736-1.9566.921-2.9224.8775-5.7102-.1307-8.3634l.1149-.4451c-.4662.7617-.8337.49-1.1023-.8151-.7661.8489-1.4056-.1551-1.1034-1.0171-.7803.4764-.9292-.0185-1.1452-.7458-.1618.2911-.2667.251-.3192-.0945-.3787.6161-.6175.4307-.3719-.2803l-.4883-.114c-.4506.5841-.809.2563-1.0751-.9835-.4606.9293-.9091.6025-.6775-.3659-.8965.3282-1.3969.0713-1.5013-.7707-.4284.5998-.6447.4128-.3711-.3113l-.9568-.245c-.1236.3711-.4133.1827-.8691-.5651-.5453.8639-.9242.6567-.6847-.3472-.6761.7418-1.0218.5514-1.1405-.4328-.4916,1.0989-1.3266.3508-1.4786-.6703-.4705.8869-.5949.4489-.7998-.3664-.3513,1.0543-1.3969.6349-1.4359-.4185-.462.9354-.5655.5391-.7707-.3166-.0026.315-.0869.3-.2429-.0051-.8081.0736-1.2082-.0475-1.2002-.3633-.4928.4712-.6413.2592-.3674-.3634.1806-.2795.5513-.4037,1.1123-.3726,8.0956,2.4377,15.3834,6.7696,21.5601,12.9389l-4.9787,8.1699.0162,38.9792c-.08.3197-.2443.4231-.4657.5586Z"/>
          <g>
            <path class="cls-70" d="M91.5196,119.2423l-1.6816-.0436c-.203-.0199-.3631-.0475-.373-.1023-.0897-.4961.0863-6.8636.2634-7.1771.0475-.0842.2179-.099.4233-.0939l1.3645.4487c.0227,2.4137.2011,4.6715.0034,6.9682Z"/>
            <path class="cls-103" d="M103.8051,117.368c-.5137.7566-.5931.9793.3709.2493.5204.3498.5243,1.0191.3431,1.7534l-2.1796.0672c-.4871.015-1.8411.5933-1.8791-.1695.8477-.5611,1.2092-1.3562,1.0847-2.3853.4495-.7656,1.6826.0968,2.26.4849Z"/>
            <path class="cls-46" d="M111.9386,100.692c-.2386.349-.5893.4878-.745.2019-.2233-.4101-.2976-9.2927.1694-9.2891.1873.0015.3737.123.5599.2788,1.1589.8569,1.3765,1.8304,1.4028,3.3068.0389,2.1896.0966,3.8962-1.387,5.5016Z"/>
            <path class="cls-62" d="M93.8523,119.0713c-.6423.1928-1.2322.1542-1.8601.0668l.0829-6.5905c.3085-.2065,1.5192.1019,1.5345.4807l.2427,6.043Z"/>
            <path class="cls-14" d="M80.8108,111.3911c.147.0333.2617.0678.2631.1066.0937,2.531.0786,5.2506-.1682,7.6865l-1.487-.0624.1312-7.6312c.0076-.4448,1.0982-.3644,1.2609-.0995Z"/>
            <path class="cls-36" d="M97.8568,115.1717c.9111.4913.9179.9364-.0276,1.3948l.0232,2.5458-1.4595.06c-.2032-.0296-.3619-.0627-.3654-.1077-.116-1.5005-.212-3.8795.3351-5.0338.7323-.0363,1.4514.3555,1.4941,1.1409Z"/>
            <path class="cls-126" d="M100.1175,114.7309l1.0686-.2866c-.1681,1.4524-.3793,2.9996-1.742,4.1364-1.033-1.0936,1.2723-2.2926.6733-3.8498Z"/>
            <path class="cls-43" d="M94.9249,119.1857l-.3764-.002c-.2801-.7255-.5255-6.1501.3943-5.8596.8597.2715.5705,4.6904.3842,5.6747-.016.0847-.1869.14-.402.187Z"/>
            <path class="cls-146" d="M96.3627,114.0308l.0303,5.1415-.7303.0134c-.1983-.0322-.353-.0667-.3552-.1091-.0672-1.2999-.0043-3.8495.0751-5.1905.005-.0845.1267-.1622.2817-.2379l.6983.3825Z"/>
            <path class="cls-140" d="M115.1223,95.0358c-.0515.8135-.4226,1.6029-1.1956,2.2046l-.1603-3.4193c.6731-.0403,1.4041.4536,1.3559,1.2147Z"/>
            <path class="cls-39" d="M101.5697,113.2942l-.32-.4282c.6799-.3021.932-1.106,1.0649-1.8258.0684-.3705.6361-.869,1.067-.6214.0515,1.1831-.6746,2.6649-1.812,2.8754Z"/>
            <path class="cls-62" d="M95.6643,113.6483l-.0016,5.5374h-.7378c.4531-1.7528.6889-3.7733.0176-5.8603-.8559,2.1591-.1879,3.9942-.394,5.8583-.2387-.0377-.3779-.316-.384-.7108l-.0793-5.1383c.7913-.1791,1.1659.0874,1.5791.3137Z"/>
            <path class="cls-45" d="M100.4604,119.2683c.0328-.8159.6795-1.6952,1.0847-2.3853.5897.3009.7552,1.0595.5715,1.7733-.1549.6019-1.0409.6959-1.6562.612Z"/>
            <path class="cls-102" d="M109.0854,119.1407c-.1777-.3406.3346-1.7461.9114-1.7908.7155-.0554.8177.8075.6744,1.1405-.2409.5599-.5608.9281-1.5858.6502Z"/>
            <path class="cls-40" d="M97.8292,116.5665c-.0043-.4718-.092-.9349.0276-1.3948.2126-.0677.7385-.3407,1.0262-.245.6725.2237.5771.8898.2948,1.3161-.3282.4957-.8091.5633-1.3486.3237Z"/>
            <path class="cls-54" d="M102.192,115.6945c-.752-.8235-.0116-2.2386.7475-1.8421.5715.2984-.1704,2.1251-.7475,1.8421Z"/>
            <path class="cls-6" d="M106.6584,119.0034c-.7028.2734-1.2765.1935-1.5396.1645-.239-.0263-.3266-.8746-.1128-.9811.7258-.3613,1.4105.3091,1.6524.8166Z"/>
            <path class="cls-41" d="M103.4778,113.2348l.3398-1.3752c.2355-.1521.6646-.0462.6893.1573.0389.32.0702.8055-.0121,1.0765-.0813.2679-.7284.2718-1.017.1414Z"/>
            <rect class="cls-138" x="103.0904" y="115.0136" width="1.931" height=".8238" transform="translate(-40.8447 171.5905) rotate(-69.1522)"/>
            <rect class="cls-5" x="106.1764" y="116.6227" width="1.6119" height=".8625" transform="translate(-36.4565 184.6719) rotate(-72.8135)"/>
          </g>
        </g>
        <path class="cls-123" d="M63.5211,120.2076c.2764.0361.4914.0732.4921.1137.1361,8.777.0684,17.8279-.0778,26.6119-.0014.087-.1625.1713-.3692.2548-.487.685-1.082.107-1.4886.1464-.4597.0281-.6197-.0704-.3607-.3457.0852-8.6916.0451-17.3725-.1203-26.0428l.5342-.689,1.3903-.0494Z"/>
        <path class="cls-101" d="M49.9483,121.7592l.7171.3619c.5345-.0834.6548.1899.361.8198l-.0003,23.277c-.248.2403-.6181.1927-1.1104-.1427l-.7086-.6953-.5422-1.1175c.0809-7.6367.1921-15.2227.3338-22.7582l.9495.255Z"/>
        <path class="cls-29" d="M48.0353,121.0301c.9503.375,1.2089.7834.7756,1.2252.0793,7.4336.0352,14.8428-.132,22.2276l-.5595-.228c-.7067-1.5435-1.1113-3.2477-1.1123-5.155l-.01-18.025c.1398-.1275.3836-.3392.5216-.2772l.5167.2323Z"/>
        <path class="cls-8" d="M62.0776,147.3345c-.6193.0601-1.6296.6424-2.1984-.1165l1.4763-.0642-.0004-25.705c0-.3041-.2942-.4295-.3805-.3809.2547-.3914.7202-.7953,1.1561-.8108l-.0532,27.0775Z"/>
        <path class="cls-28" d="M52.1716,122.4953c-.2125-.1148-.7839-.0722-.7836.3845l.02,23.9949c-.5272-.1477-1.0762-.3912-1.4923-.7996.0375.0564.5777.1002.7289-.0575l.0207-23.8966c.513-.098,1.147.0649,1.5063.3742Z"/>
        <path class="cls-135" d="M49.9483,121.7592c-.2107-.1154-.7736-.0717-.7733.383l.0322,23.2377c-.3433-.3369-.8854-.683-1.0877-1.125.0954.037.3187-.1116.3188-.3862l.0086-21.7208c.0002-.4935-.2466-.8721-.4115-1.1178.6167.0773,1.4055.3298,1.913.7291Z"/>
        <g>
          <path class="cls-129" d="M62.345,118.7049c.8846-.6673,2.0448.9472,1.1761,1.5028.0523,1.0932-1.099,1.0587-1.3903.0494-.1981.6351-.4302,1.2444-1.1561.8108.1199.4813.0115,1.0068-.3251,1.5767l-.0316,24.136-.7387.4375c-.1132.3216-.2429.3156-.3883-.0028l-.7395-.335-.1172-21.7852c-.2851,7.1785-.3659,14.4251-.2426,21.7398l-.738.4448c-.1216.3064.076.447.5928.4217,6.9993-.2194,13.9375-.1339,20.8146.2564l26.157.1809-52.6538-.0741c.3089-.2008.42-.4582.2922-.7841l-.7242-.5597.0392-24.2256c-.386-.2304-.7445-.1181-1.0754.337l-.4308-.7112c-.6116.7784-.8932.6067-.7171-.3619l-.3146-.1127c-.4129.6576-.9457.4521-1.5984-.6164-.2915.5993-.6376.6143-1.0382.0449-.5751.0049-.4955-.9419-.0376-1.1844.6331.1772,1.2825.326,1.8735.0394,3.0066.8054,6.0086,1.6886,9.0062,2.6496l1.78-2.4107c.9013-1.3888,1.8099-1.8768,2.7259-1.464Z"/>
          <g>
            <path class="cls-22" d="M59.4909,147.2153l.3883.0028,1.34.1248c.2358-.673.5219-.6757.8584-.0083.3641-.942.8599-.6051,1.4886-.1464.165-.973.503-.9141.739.0357-.0035-1.0805,1.2357-1.0402,1.4867-.0074.2284-.4433.4881-.3963.779.141l1.4219-.1182c.0896-.3273.2147-.3289.3736-.0193.6064-.576,1.2312-.571,1.8388.0002.1081-.3213.2322-.3155.3714.003.0266-1.1025,1.6458-1.0182,1.8445-.0009.1239-.3158.2482-.3042.3731.0207l1.4204.1148c.2866-.444.4175-.6244.7823-.1324.0643-1.1157,1.3644-1.0974,1.4659.0382.7218.2764,1.4433.4158,2.2307.3326.156-.0165.3624.2076.3678.3618l-22.8868-.0417c.5067-.4378,1.1616-.5659,1.4794-.6364.3871-.758,1.3544-.723,1.8372-.0645Z"/>
            <path class="cls-122" d="M59.4909,147.2153c-.5896.285-1.3125.425-1.8372.0645l.0067-22.1633c.5711-.6545.9791-1.3559,1.7135-1.5934l.117,23.6922Z"/>
            <path class="cls-142" d="M56.6777,124.0392c.4925.437.5869,1.0134.5884,1.7827l.0404,21.3305-1.9514.0637c-.1959-7.64-.2135-15.3898-.0526-23.2495.2465-.3722,1.0206-.093,1.3753.0726Z"/>
            <path class="cls-1" d="M59.8792,147.218l.0648-24.65c.0019-.6451.8019-1.1487,1.0307-1.5003l.5133-.3066c.2984,8.631.3747,17.3537.2289,26.1684-.3014.6454-1.1872.5409-1.8377.2884Z"/>
            <path class="cls-123" d="M52.1716,122.4953c.1741.1499.7016.2149.7016.7751l-.0166,24.0103-1.4487-.4059-.602-.5584c.2624-7.7991.3359-15.6345.2205-23.5061-.0712-.6315.6292-.5689,1.1452-.315Z"/>
            <path class="cls-101" d="M55.1593,123.5735c.7985.1379.9395.4074.1418.5522.0581,7.7664-.0612,15.4655-.3578,23.0974-.4674.0079-.8312.0641-1.3314-.0903l-.0931-23.8568c.6842-.2772,1.2527.2995,1.6405.2975Z"/>
            <path class="cls-20" d="M56.6777,124.0392c-.4094-.0554-.7363-.1314-1.2295.0236l-.0932,23.1533-.4117.0069.216-23.6496c.6615-.0033,1.0791.0761,1.5184.4658Z"/>
          </g>
        </g>
        <path class="cls-143" d="M91.5537,81.8812l-.0396,25.487c-.4768.5025-1.2822-.2447-1.6982-.3065-.82-.1293-1.0151-.39-.2104-.5564-.1263-8.3066-.0778-16.5858.1455-24.8377l.3811-.1261,1.4216.3396Z"/>
        <path class="cls-31" d="M87.1711,81.1517c.2097.0367.373.0741.3735.1137.1137,8.2041.108,16.6036-.028,24.8118-.0014.0856-.1704.1684-.3874.2505-.497.034-1.0516-.0024-1.4369-.3745-.2113-.0365-.3758-.0737-.3764-.1132-.12-8.1896-.1183-16.5748.0117-24.7687.0014-.0855.1695-.1683.3853-.2503.5152.0158.9909.1312,1.4582.3308Z"/>
        <path class="cls-36" d="M89.349,81.523c.3468.0093.4149.3886.2043,1.1378l.0527,24.0381c-.1548.248-1.3472.1017-1.7028-.025l-.3793-.344c.0004-8.2991.0072-16.5993.0206-24.9007l.3739-.2541c.5151-.0133.9801.1289,1.4306.3478Z"/>
        <path class="cls-87" d="M84.9426,80.7973c.2162.0363.3846.0734.3852.113.1229,8.1887.1154,16.573-.0117,24.7661-.0013.0855-.1657.1684-.3766.2506-.4529.2925-.9696.0195-1.4333-.0051-.6964-.0992-1.0102-.3363-.3754-.5589l-.0165-24.6074.4021-.2534c.4646.1514.9321.28,1.4263.2952Z"/>
        <path class="cls-32" d="M82.7117,80.4706l.4023.1138.0166,25.1096-1.8616-.1578-.3328-.115c.0878-8.3635.2007-16.6871.3388-24.9708l1.4367.0201Z"/>
        <path class="cls-131" d="M80.9062,80.4501c.2647,8.1706.2986,16.4276.1019,24.7711l-.4707.3149-1.1062.0072-.0005-25.0931h1.4756Z"/>
        <path class="cls-56" d="M83.5163,80.5021l-.0102,25.4197c-.7579-.0402-1.6114.2012-2.2371-.3855l1.4862-.0688-.0435-24.9969c.2446.0034.5685-.0454.8045.0315Z"/>
        <path class="cls-119" d="M87.9184,81.1752l-.0152,25.4988c-.1527-.1565-.5617-.3609-.7739-.3463l.0419-25.176c.1957.0836.5366.029.7473.0236Z"/>
        <path class="cls-69" d="M85.713,80.8209l-.0207,25.1323c-.1888-.023-.5807-.1024-.7529-.0262l.0032-25.1297.7704.0236Z"/>
        <path class="cls-8" d="M90.1321,81.5415c-.1534.262-.3788.6457-.3781,1.1378l.0619,24.3824c-.5725-.085-1.4535.0831-1.9127-.3877l1.4935-.0998-.0477-25.0512c.1961.0953.5774-.0307.7831.0185Z"/>
        <path class="cls-37" d="M81.269,105.5363l-.7317-.0002c.1749-.2722.318-.6185.3762-1.1217l-.0073-23.9643.3689.0004-.0061,25.0858Z"/>
        <path class="cls-132" d="M82.4828,125.199l.7992,2.0874-.0119,13.5933c-.0008.9244-2.8341,2.8585-1.133,5.3826-.5626.2078-.9018.1896-1.2355.3799-1.4252-.0252-.7273-2.7422-.7285-5.3207-.1268-5.2901-.2505-10.5799-.3709-15.8694.0003-1.484-.0322-3.2787.8825-4.6982.3243-.5033,1.2461.3336,1.17.804-.0512.3161-.4803.9381-.5767,1.3692.5324.7367.8964,1.4664,1.2048,2.272Z"/>
        <path class="cls-67" d="M97.2265,146.8062l-3.7413.0583.7523-2.1949c-.6159-1.5517-1.6755-2.7818-2.6362-4.0791l.4824-3.3615c1.7154-.4022,4.0311-.6934,5.7021.1233,1.7259,3.9343-1.7735,5.4992-1.0934,7.7689l.7196.8372c.1353.1574-.0101.5431-.1855.8479Z"/>
        <g>
          <path class="cls-121" d="M106.4123,124.3852c-.8191.7076-1.6516,1.3783-2.4975,2.012-.1672,5.0625-.1107,10.0693.1694,15.0205.7082.6394,1.475,1.1393,2.3005,1.4997.1153-.3061.1879-.268.2219.0804-.0476.5163-.0238,1.1752-.3371,1.4524-.423.3743-1.21.2251-1.5359.0634-1.1081-1.8018-3.7817-.7815-4.7035.1064-.3173.0072-.7855.2295-.9936-.1908l-.4826-.9744c.8043-.9185,1.7858-1.6549,2.9446-2.2094.138-.2229.2041-5.1993-.0544-5.2436-.1037-.0178-.8814.4281-.8396.664.0843,1.7502-.0296,3.4654-.3417,5.1459l-.9021-.0174-.012-6.0837-8.8228.0999c-.5726.0245-.6064-.2434-.0188-.4343l.4174-.7412,8.0703-.0622c2.017-.6767,1.8696-1.2204-.1464-1.6926-1.8444.2366-2.8886-.1347-3.1325-1.1139l.1686-.4078c1.3747.2392,2.4522.0661,3.2324-.5193l.6184.522c.3604-.6297.9524-.5678,1.7761.1856.7817-3.2263.0443-5.5011-2.2122-6.8242-.8168-1.3352,1.0655-.011-.2414.4091-.6671.6662-1.5836-1.999-1.0652-2.4857.5593-.5251,8.8168-.6011,9.1708-.305.6305.5272.0756,2.2933-.7509,2.044Z"/>
          <g>
            <path class="cls-33" d="M98.5537,143.4549c-.1109-.6438.518-1.144.8068-1.6604.0958-.1712.4165-.383.4248-.826l.0931-4.9399,2.4136-1.3429-.0094,6.9681c-1.2729.6747-2.3219,1.5567-3.7289,1.8011Z"/>
            <path class="cls-81" d="M104.7335,144.5137l-4.7035.1064-.3053-.5565,2.9708-1.5853,3.5297,1.6722c-.8283.1001-1.128.355-1.4917.3632Z"/>
            <path class="cls-49" d="M106.4123,124.3852c-.3336.2238-.9496,1.05-.9522,1.4602l-.1054,16.2281c.5637.2372.7217.6407,1.0299.844-.6193.5583-1.2999-.2082-1.8348-.4167-1.2526-.4884-1.4882-1.0081-1.4744-2.2844l.0921-8.4879c.0212-1.9566-.2137-3.751.1275-5.662.9674-.7731,1.9388-1.5547,3.1173-1.6813Z"/>
            <path class="cls-25" d="M95.7157,131.7665c1.7085.8867,3.8104-.6446,5.9015,2.016-.6986.4683-1.6026,1.5174-2.6713,1.526l-8.4389.068-1.8917-1.5676c1.8105-2.2007,3.2583-1.5117,4.7375-1.9593.773-.2339,1.6394-.1257,2.3629-.083Z"/>
            <path class="cls-89" d="M99.7351,131.3614l-.0268-4.4517c.0029-.6837-.1959-1.452-.6507-1.7778l-.0037-1.1362c.8971.7352,2.6364,1.1704,3.0554,2.3305.5451,1.9352.0367,4.1012.1962,6.2127-1.214-.0848-1.7243-.8853-2.5704-1.1776Z"/>
            <path class="cls-10" d="M105.9624,123.0686c-.7838.6794-1.9764,1.9642-3.305,1.9618-1.1735-.0997-2.249-1.2303-3.3194-2.0039l6.6244.0421Z"/>
          </g>
        </g>
        <path class="cls-30" d="M83.2701,140.8796l.0119-13.5933-.0119,13.5933Z"/>
        <g>
          <path class="cls-85" d="M91.9088,124.3277c.1799.6294-.4299,1.0465-.7359.2909l-2.1483,1.9266c-.1048.2086-.104,4.2854-.0096,4.6676.0063.0254.4705-.1776.4827-.2007-.2957-1.5945-.2633-3.1725.0973-4.7339l.8532-.1072.4937.0997c-.4147,1.9207-.2324,3.6021.5468,5.0443.9834-.1367,1.6048.0415,1.8641.5346-.0973.7592-.9224,1.1407-2.4753,1.1445l-1.1561.7106c.7951.503,1.057,1.0603.7856,1.6719l.0188.4343-.0685,5.8921c-.8678.0202-1.2441-.6349-1.1288-1.9653.1661-.2157.0394-4.2533-.2865-3.6311-.1864.3559-.6431,5.8178.8723,5.7044l.8887,1.1282c.2788.1466.6249.31.7488.5491.1583.3056.1652.9986-.1369,1.1583-.2795.1477-.6768-.0429-.9117-.0442-1.5127-1.2611-3.251-1.4032-5.215-.4265-1.7285.114.2453-.7528.1169.3965-.5788-.0034-1.0001.1499-1.5806-.4334-.367-.3688-.3374-.6451.0145-1.0767.0104.1667.1067.4592.2382.4758.1371.0173.4247-.1662.6064-.2727l2.8079-1.6459.0126-15.3539-3.0818-2.174c-.2537-.1789-.5654-.1184-.6581.2456-.1019-.2414-.47-.4436-.2627-.8566.133-.265.4125-.9023.8508-.9027l7.2052-.0061.3515,1.756Z"/>
          <path class="cls-90" d="M90.4572,141.7029c.164.3625.3362.8504.3456,1.2362-.6264-.2607-2.3623-.7192-2.4895-1.583-.2165-2.3148.0005-4.3589-.0866-6.7175l1.8563,1.2944c.2708,1.9757-.4129,4.0294.3742,5.7699Z"/>
          <path class="cls-52" d="M90.5029,144.6021l-5.0981-.03-.9489-.5106,3.4195-1.4596c1.1444.0704,2.1051,1.1426,2.9698,1.4817l-.3422.5185Z"/>
          <path class="cls-13" d="M91.1729,124.6186l-.7248,1.5524c-.787,1.4949-.1663,3.3401-.3283,5.1564l-1.8461,1.5479.0141-6.8577c1.1118-.5431,1.8022-1.6203,2.8851-1.399Z"/>
          <path class="cls-15" d="M91.1985,123.0554c-.9646.8252-2.0042,1.4781-3.3654,2.1399-1.1974-.5505-2.2116-1.1059-3.4507-2.1295l6.8162-.0104Z"/>
        </g>
        <g>
          <path class="cls-97" d="M90.5238,120.2677l19.5169.025c.5481.0007.7307,1.4364.7049,1.8528l.0567,16.2239c.0049,2.2857-.233,4.6963-1.6799,6.4528-1.0946-.651-1.4009-1.4422-2.0065-2.0308-1.0906-.0873-1.2701-1.1075-1.4061-2.0168-.3292-2.2-.2835-11.6401.0695-13.8084.1912-1.1742.423-1.8139,1.2473-2.7539.5742-1.2223.4987-1.7165-.2267-1.4826-.0652-.209-.1421-.3795-.2597-.4149-.6663-.2008-6.5471-.1778-7.3403-.0128-1.0142.2109-1.348.6282-1.1718,1.7014,1.1117,1.1621,1.7785,6.3616.8624,7.2932-.2728.2774-7.4897.2623-7.7747-.0025-.5107-.4745-.7555-6.7994,1.2087-6.5963.4611-.5873.9556-1.2201,1.1807-2.4589l-11.5733-.1551,1.0054,2.6233c.1605.6426.1358.892-.4545.4921-.7848-.157-1.4062-.796-1.8642-1.9169.1433,1.1829-.1288,1.9062-.8164,2.17.1181,5.2936.2418,10.5835.3709,15.8694l.7324.4258c-.1677,1.6379-.169,3.2695-.0039,4.8949.6774.0233,1.0956-.1993,1.2545-.6678.5112-.1743,10.3605-.1692,10.8014.1428.2685.19.4571.4163.5277.7473.4679-1.0942,3.3453-1.2077,3.7413-.0583.216-.5863.5091-.8038.8793-.6526l-.238-.6594,8.1416-.1782c.8018-.0058,1.4348.2109,1.8848.5757-1.7569,1.3872-3.3355,1.3995-5.2377,1.3972l-20.1995-.0244c-.9001-.0011-1.9934.799-2.868.1786-.7851-.557-.1833-1.367-.1835-2.0731l-.0046-24.7167c-.0043-.1916.01-.3731.0891-.5195.2637-.488,9.7412.0515,11.0338.1339Z"/>
          <g>
            <path class="cls-35" d="M107.1159,142.7914l-.5094.2065-.2219-.0804c-.5177.0591-1.157-.2825-1.0299-.844l.1054-16.2281c-1.0971-.3563.2262-1.137.9522-1.4602.4389-.2944.607-1.7943.0254-1.8025l-6.7271-.0952c-.6977-.0099-1.2437.5305-1.4052,1.0216-.2249.6839.202,1.2286.7523,1.6228.8782-.5921,1.3354.5381,1.375,1.4382.217.9874.3315,4.4902-.6975,4.7913-1.2541.6929-2.7308.2965-4.0195.4051-.2339.9343-2.0371,1.0107-2.3629.083l-2.8063-.1674-.0983-5.5111c-.9086-.542-.0172-1.278.7248-1.5524.2295.0469.5362-.1166.7359-.2909.0324.1621.3025.3266.4156.3699-1.3194,1.6807-1.5251,3.8215-.8649,6.1946l7.1083.1134c.4482-3.0502.1239-5.8284-1.6628-8.54,1.3309-.8002,2.6645-.2826,3.8656-.4415,1.4277-.1888,2.3732-.3285,3.8402.0522l3.0734-.1194c1.9895-.0773-1.5668,3.7825-1.5786,5.0417l-.12,12.8561c-.011,1.1776.4138,2.2404,1.1303,2.9367Z"/>
            <path class="cls-118" d="M80.2032,119.6862l9.5652.2389c.4214.0105.6367.1227.7555.3426l-9.6394.0059c-.6019.0004-1.1058.1635-1.4835.3798l-.0775-1.122c.3578-.0692.6999.1169.8797.1549Z"/>
            <path class="cls-134" d="M108.9204,143.6877c-1.916-1.1729-2.2973-3.224-2.2628-5.3242l.1922-11.7164c.0112-.6825,1.8817-3.1553,2.5952-2.9597.4103.1125.5672.492.569,1.038l.0458,14.0083c.0055,1.6677-.0549,3.1474-1.1395,4.9539Z"/>
            <path class="cls-30" d="M94.5326,130.5532c-.9373.1004-1.8059-.2176-2.776-.5361.0273-1.3087-.1749-3.0778.5705-4.2787.7308-1.1772,2.1377-2.1967,1.355-3.829-.0631-.1316-.3792-.3818-.4886-.4528-.9839-.6381,1.3375-1.1807,4.5065-.5646-2.8774,2.6151,1.878,4.7442.1375,9.3073l-3.3049.354Z"/>
            <path class="cls-53" d="M80.1731,141.3215c-.148.0228-.3742-.1318-.3741-.3937l.0032-15.4757c.1423-.0169.3639.1353.364.3993l.007,15.4701Z"/>
            <path class="cls-121" d="M105.3547,142.0735l.1054-16.2281-.1054,16.2281Z"/>
          </g>
        </g>
        <g>
          <path class="cls-107" d="M78.0188,119.8246c.516.1277.6967.4883.696,1.1893l-.0214,26.5822c-.5797.3102-2.0536.3386-2.2307-.3326-.2921-.0298-.7271-.1378-.7325-.3447-.2216-8.51-.1981-17.7174.0404-26.2341l.7068-.4464c-.3688-.8207,1.0157-.9514,1.5414-.4137Z"/>
          <path class="cls-117" d="M76.4775,120.2383l-.0147,27.0251c-.4041-.1548-1.0213-.0263-1.4659-.0382-.205-.0375-.3645-.0755-.365-.1155-.1085-8.808-.1065-17.8246.0356-26.6367.0014-.0866.175-.1704.3979-.2535l1.4122.0188Z"/>
          <rect class="cls-26" x="77.2171" y="120.2926" width="1.1067" height="26.9306"/>
        </g>
        <path class="cls-9" d="M78.5038,119.1957l-14.2274-.0244c-.4096-.0005-.5354-.8974-.3812-1.085-.319-1.2272.61-5.8595,2.5153-4.541.0978.0677.3506,1.3388.2344,1.6831,2.6398.5991,5.3869.7763,8.2415.5317.832-.3029.8514-.9848.0581-2.0457-.1909-.0532-.3229-.235-.341-.3992-.048-.4357.1186-.8668.3376-1.2438l3.3785-.31.1842,7.4343Z"/>
        <path class="cls-143" d="M67.9803,120.3496c.3383,8.6635.3272,18.1367.0125,26.8895-.3819.1364-1.308.2769-1.6113.0707-.3388-8.8472-.3453-18.1095-.2065-27.0475.0013-.0854.1735-.1682.3945-.2502.4809.0525.9567.1333,1.4108.3375Z"/>
        <path class="cls-94" d="M75.0653,120.2195l-.0684,27.0057c-.651.4622-1.6397.5612-2.2026.0176-.0716-.6144.1592-.844.7354-.784l.0026-25.4006-.7412-.7631c-.3233-.108-.3194-.2375-.0033-.3877.8029-.0028,1.5073.3019,2.2775.3121Z"/>
        <path class="cls-27" d="M66.5695,120.0121l-.0556,27.1403,1.4789.0868c-.5751.5536-1.5541.4516-2.2009-.0228l-.738-.3427c-.0036-8.7089-.0071-17.4208-.0107-26.1357l.7376-.4454c-.3214-.1059-.316-.2283.0023-.3663l.7863.0858Z"/>
        <path class="cls-11" d="M65.7832,119.9263l-.0023.3663c-.151.3732-.3984.6753-.742.9063l.0041,25.581-.7378.4439-.739-.0357-.0451-26.9805c.7507-.0267,1.4722-.3675,2.262-.2813Z"/>
        <path class="cls-44" d="M67.2738,112.976c.2307.7936.4288,1.4288.8464,2.2296,1.6561-.5969,4.939-.9569,6.2362.2549.2009.006.721.2391.6754-.3705l-.0873-1.3756c.7814.2178,1.9171,1.4311,1.3245,2.337l-10.2121.0712c-.358-.6711-.0339-1.3727.0937-2.152-1.4207.1434-2.2486,1.5538-1.7044,2.84.1523.3599.173.6745.0467.8993-.1081.1925-.3907.3265-.5977.3764l-.6575-.006c.7441-2.0041-.5019-3.5122,2.1833-5.1471.8966-.3498,1.5142-.3355,1.8528.0428Z"/>
        <path class="cls-48" d="M72.7878,119.9074l.0033.3877c-.1039.3226-.2278.3185-.3709.0017.0545.5436-.3155.8415-1.1099.8935l.0042,25.5887-.7378.444-.3714-.003-.7377-.3423.0066-25.5378c-.5238-.2256-.8941-.5747-1.1109-1.0473-.2171-.1104-.2122-.2339-.0001-.3698l4.4247-.0153Z"/>
        <path class="cls-61" d="M68.3632,120.2926l.7379.343.0031,26.139-.7378.4452-.3736.0193-.0125-26.8895c-.0001-.2423.1304-.426.3828-.4268v.3698Z"/>
        <path class="cls-91" d="M70.2052,147.22c-.5502.4299-1.2861.4227-1.8388-.0002l-.0032-26.9272,1.8489.0755-.0069,26.8519Z"/>
        <path class="cls-112" d="M72.4202,120.2969c.3223,8.6863.3209,18.1584.001,26.9253l-1.8445.0009-.0044-26.855,1.8479-.0712Z"/>
        <path class="cls-123" d="M65.7808,120.2926l.011,26.9238-1.4867.0074-.0043-26.847c.6278-.1678,1.0588-.1059,1.48-.0842Z"/>
        <path class="cls-65" d="M72.7942,147.2428l-.3731-.0207-.001-26.9253.3709-.0017.7379.3432.0014,26.1589-.7361.4455Z"/>
        <path class="cls-147" d="M93.4397,82.2975l.1175,3.775-.151,21.9472c-.0612.1617-.7126.1474-.7587.1176-.3616-.2595-.6174-.4472-.6192-1.1401l-.0635-24.6333,1.4749-.0665Z"/>
        <path class="cls-88" d="M72.7942,147.2428l-.0032-26.9477c.4197-.0019.854-.0853,1.4792.0808l-.0037,26.7772-1.4723.0897Z"/>
        <g>
          <path class="cls-113" d="M68.062,113.0434l-.387-.1071-.0506-5.5488-.2345.4801c-.8098-.1247-1.6183-.0543-2.4255.2112-1.2225-.0468-2.4074.7347-3.5302,1.2176-.7032.0844-1.3913-.0381-1.948-.4496-1.4434-.5957-1.8444-4.4574.0619-4.4295.8723-1.1605,2.6502-2.0763,4.0954-2.2303.977-1.9957,3.8394-.8541,4.8321.7687.5265.8607.9277,9.1375.4987,9.897-.1529.2706-.5684.2661-.9123.1906Z"/>
          <path class="cls-57" d="M67.6244,107.3875c.1993,1.0206.5092,4.6048.0871,5.4733-.043.0884-.221.1112-.4377.1153l-1.8528-.0428c.363-.221,1.0777-.4747,1.6451-.6576.3902-1.2125.1669-2.7602.1704-4.1098l-2.2721-.087c.8005-.5325,1.7098-.7628,2.66-.6914Z"/>
          <path class="cls-128" d="M62.789,101.7782c.1591.3749.5515.3861.8545.4088-1.2798.8466-2.5812,1.7575-4.0954,2.2303l.1929-.3223c.119-.1989.0456-.5991-.0459-.5454l-.587.2159c.9882-.8397,2.4693-1.4518,3.6809-1.9873Z"/>
          <path class="cls-127" d="M68.062,113.0434c-.1095.1074-.195.2778-.1637.4364.0211.1067.156.2019.2025.2542.006.3573.0721.7192.2201,1.0681-.102.0581-.1981.2343-.2007.4035-.4688-.1305-.9016-.4882-1.1032-.752-.4216-.5517.0925-1.0818.2568-1.4775.7227-1.7403.2188-3.7377.3506-5.5885-.0579-.131.0391-.4716.4124-.328l.0251,5.9839Z"/>
          <path class="cls-24" d="M60.5172,108.4836c-.4273-.6714-.6633-2.6408.0478-3.3264,1.5155-1.4613,5.28-3.1903,6.338-1.6894.5229.7419.6464,1.7422.2528,2.752l-6.6385,2.2637Z"/>
        </g>
        <g>
          <path class="cls-80" d="M69.4275,96.7439c.1985.3303.1559.8027.1594,1.2908.7166-.1154,1.0843.4446,1.4111.5456-.1384.4654-.3903.7122-.7557.7406,2.2742,1.6883,2.5474,4.4329,2.5334,7.0816l-.0123,6.4107c.5425.002,1.0279.1677,1.4564.4974.1133-.3209.2415-.3144.3837.0047.5389-.291.6996-.098.341.3992,1.1425,1.0267.928,2.7716-.5882,1.7461l-2.8788-1.5509c-1.1322.8383-2.1844,1.1358-3.1567.8924-.7943.0072-.9491-.6073-.2201-1.0681.466-.9362,1.2754-1.5826,2.4281-1.939.3697-1.9029.2111-7.1454-.4551-9.0254-1.1847-3.3431-4.272-2.2142-6.5985-.9212l-.6863-.0701c-.4979,1.2401-2.5097,1.7675-3.6809,1.9873.138.5771-.2556,1.0116-1.1809,1.3035l.0255,4.241,1.5335-.4631c.7908-.5832,1.4933-.4302,1.948.4496-3.1633,1.3607-5.8568,3.3323-8.447,5.5695.7053-.8831.6825-1.8515.6732-3.0558l.0124-7.0094.7544.2841.3485,6.3335c.057.0386.7667-.4975.8412-.8237.2574-1.1253.3525-3.8917.1441-5.04l-3.8697-9.8794-.0372-1.0624c3.7957-2.1739,7.6855-4.1372,11.6694-5.8899,4.2238-.3563,7.0839,4.1481,5.9038,8.0209Z"/>
          <g>
            <path class="cls-136" d="M69.4275,96.7439c-.2718-.4524-.4238-.7074-.3818-1.6187.135-2.9239-2.8495-6.5775-6.0027-5.5446-3.7767,1.2372-6.9658,3.6147-10.6667,5.322l3.8283,9.5395c.8253,2.0565.1251,4.5012.1418,6.6868l-2.2338,1.7425-.4399-8.0706-3.9768-9.8083,13.6002-6.9305c2.179-1.1104,4.9411.5362,6.14,2.1083,1.5228,1.9967,1.3432,4.5033-.0088,6.5736Z"/>
            <path class="cls-95" d="M70.998,98.5803c1.3286.4104,2.2023,1.1635,2.6325,2.4937.1642,4.0548.1673,8.0977.0091,12.1288l-.8762-.3897c-1.5837-.3731-.3254-4.1404-.8739-8.978-.2353-2.0755-1.1944-3.6578-3.3219-4.6682.7724-.6708,1.6063-.5957,2.4305-.5867Z"/>
            <path class="cls-57" d="M68.1007,113.7339c-.8798.3773-.9703-.5179-.0388-.6906.1531-.1711.3192-.4557.312-.8408l-.145-7.7163c-.0198-1.056-.9036-1.8473-1.59-2.2431-.8948-.516-2.1854-.592-2.9955-.0561-.7467.3017-1.2527.4709-.8545-.4088,1.1527-.5094,2.3856-1.758,3.8723-2.0016,2.3644-.3874,4.3142,2.0668,4.5323,4.3334.2653,2.7568.1152,5.2348-.0461,7.9914-.9536.7614-1.9922,1.2965-3.0469,1.6324Z"/>
            <path class="cls-105" d="M59.5821,100.7096l.0253-.8439,5.5323-2.9119c2.7584-3.2334-1.239-5.9875-4.2981-3.8466l-.9175-.3376c-.7629.2603-1.1389.2874-.7481-.5054,1.3629-.7133,2.7579-1.8313,4.46-2.0134,2.0536-.2197,3.6743,1.4273,4.2979,3.0518.6479,1.6878.469,4.031-1.1135,5.1164-2.7877,1.9121-5.735,3.156-8.6907,4.6978.1627-1.2227.8141-1.8239,1.4522-2.4074Z"/>
            <path class="cls-111" d="M56.2045,95.8961l1.8024,4.5605c.2845.7198-.4972,1.8579-1.2138,2.7016l-3.2746-7.4995c1.1091-.2414,1.924-.0762,2.6859.2375Z"/>
            <path class="cls-50" d="M59.5481,104.4173c-1.0144,1.2708-.2058,2.9299-.0619,4.4295.0742.7734-1.2756,1.4325-2.2691,1.4702l-.0112-5.1705c-.0024-1.1069,1.4373-.9861,1.9022-1.3811,1.3235-.9036,1.9572-.2475.44.6519Z"/>
            <path class="cls-130" d="M74.3564,115.4605c-1.6596-.0498-4.481.2336-6.2362-.2549-.6235-.3214-.5268-.567.2007-.4035l3.1159-1.7752,2.4149,1.4366c.45.2677.6508.5946.5047.997Z"/>
            <g>
              <path class="cls-21" d="M59.5821,100.7096c-.3685.1907-1.1829-.1771-1.5752-.2531-.9043.5945-2.321-3.4994-2.3012-3.815.0187-.2974.2717-.538.4987-.7455-.1187-.3003.2232-.8368.3256-1.1345-.0597-.9489,2.3738-2.074,3.3942-1.9919.7178-.4213,1.9331-1.0177,2.8751-1.1422,1.7821-.2355,3.327.7768,3.8121,2.1995.4812,1.4113.0084,3.2404-1.5153,4.0289l-5.514,2.8537Z"/>
              <path class="cls-99" d="M59.9242,92.7697l-3.3942,1.9919c-.5204.0328-1.0909.1512-1.8838-.1263l4.5299-2.371c.1496.2263.3928.3469.7481.5054Z"/>
              <g>
                <path class="cls-38" d="M59.2988,100.189c-1.588-1.6294-2.653-4.6655-1.5397-5.2402l4.3595-2.2503c1.3287-.6859,2.7754-.1319,3.4577,1.0455.5816,1.0034.2585,2.8113-1.0663,3.5655-1.5974.9093-3.484,1.4591-5.2113,2.8796Z"/>
                <path class="cls-72" d="M64.8684,93.8946c1.2544,2.5328-2.1944,3.5961-5.3821,5.2682-1.1713-1.1248-1.5734-2.4509-1.4036-3.8844l2.3232-1.0559c1.4364-.6529,3.1047-1.1923,4.4625-.3279Z"/>
              </g>
            </g>
          </g>
        </g>
      </g>
    </g>
  </g>
  <g>
    <path class="cls-104" d="M72.571,66.0684c.3924,2.0134,2.1297,2.7122,3.846,2.1108.3624-.127.6553-.1601.8377-.0985s.524.7365.3568,1.1353c-1.6178.9969-4.7282,1.0958-6.1706-.6964-2.2258-2.7655-1.6943-9.1683,2.2032-10.3035,1.486-.4328,2.9357-.3107,4.0862.7631.3536.33-.1241.7181-.3088.8751-.8533.7252-1.7053-.8159-3.4088-.1352-1.5462.6178-1.9719,3.6289-1.4417,6.3493Z"/>
    <path class="cls-58" d="M92.7273,64.3935c-.0004-.9372-.3663-1.6017-.9367-1.7015-3.4539-.6046-1.9307,6.6354-2.6017,7.0582-.2963.1867-1.1088.1575-1.4311-.0114-.6565-.344.4769-4.6299-.965-7.9293.5425-.3862,1.188-.5778,1.4788-.3579.3352.2534.5023.7344.8696,1.4132.7644-1.1236,1.5842-1.6151,2.6705-1.6829,1.1459-.0715,2.5686.3099,2.603,1.7107l.1672,6.8151c-.6986.2048-1.2018.1864-1.8526.016l-.0022-5.3303Z"/>
    <path class="cls-58" d="M55.8295,69.9028c-1.1364.1654-2.6298.0046-3.362-.8193-.2307-.2596.0423-1.0789.2612-1.1425.5091-.1478,3.0463,1.5264,3.4036-.0385.392-1.7171-3.2845-1.8257-3.6088-3.9202-.136-.8782.189-1.8945,1.0352-2.395,1.2618-.7464,3.2165-.7198,4.1515.3104.2271.2502-.0866.8841-.2582.9069-.8601.1143-2.6565-.9818-2.9672.43-.371,1.6855,3.6126,1.3863,3.6197,4.1362.0034,1.297-.7985,2.317-2.2748,2.5319Z"/>
    <path class="cls-3" d="M62.4238,67.9296c.0429.9141,3.0206-.1117,2.2372,1.232-.7343,1.2595-4.0006.7735-4.0549-.5673l-.2393-5.91c-.4565-.0477-.9466-.1601-1.1993-.1647-.3457-.0063-.5669-.8414-.1097-1.0002.7333-.2548,1.5592-.3201,1.5639-1.3772.0024-.5363.2583-.8926.5891-1.0575.348-.1734,1.1256-.2337,1.1428.3573.0136.4674-.1155,1.2852.1075,1.6175.2295.342,1.2829.0706,1.6874.3135.4519.2714.1126,1.1232-.1908,1.1498-.2924.0256-1.2786.035-1.3836.317-.445,1.5153-.2288,3.4151-.1501,5.0899Z"/>
    <path class="cls-145" d="M101.4015,68.4593c.3172.0246.5334.8036.3416.9747-.3079.2746-.8288.3179-1.2602.397-1.4121.2589-2.8654-.1024-2.9172-1.6084l-.1863-5.412c-.0072-.2099-.7905-.3421-.9997-.3282-.3041.0203-.6322-.8226-.2155-1.0531.3859-.2135,1.0334-.1879,1.2902-.4181.3844-.3445.1197-1.5431,1.0343-1.9404.3959-.1719,1.1294-.1035.9674.7741-.0684.3707-.1298,1.2264.1603,1.3708.3314.1649,1.071.055,1.6711.0509.2913-.002.2798.9317.064,1.1268-.3125.2824-1.0188.3501-1.8221.1763l-.134,5.6612c.6487.2511,1.0725.1559,2.0061.2284Z"/>
    <path class="cls-144" d="M121.5221,69.019c-.4104.945-1.3088.8973-2.0538.8585-.5373-.028-1.5994-.4068-1.6081-1.2947l-.1065-10.8979,1.8978-.3952.0594,10.9434,1.8113.786Z"/>
    <path class="cls-59" d="M105.3437,64.5097l-.2145,5.2873c-3.286.8085-.6579-2.8732-2.3996-7.5449-.2083-.5589.4863-.8845.9342-.8664.5141.0208.8545.4664,1.1843,1.2708.8432-1.1892,1.7103-1.6573,3.0832-1.39.4155.0809.3315.7875.1603,1.1327-.576,1.1612-2.6751.3178-2.7479,2.1106Z"/>
    <path class="cls-104" d="M43.1961,60.0725c-.57-1.2608-1.8673-2.0019-3.4004-1.9315l-3.7608.1727.0041,11.3899c.4819.2387,1.5806.3147,1.9623-.0965l.1155-4.3212c1.6214.0604,3.1582-.0994,4.3583-1.1435,1.1891-1.0345,1.3122-2.762.721-4.0699ZM41.2139,62.7145c-.4403.8436-1.4977,1.3131-3.0711,1.0716l-.0622-4.1762c1.1378-.2176,2.2052-.0922,2.8045.5562.5489.5939.7279,1.7836.3287,2.5484Z"/>
    <path class="cls-104" d="M81.8957,61.0311c-2.2368.0711-3.6202,1.6051-3.8743,3.9501-.2783,2.5694.9038,4.8552,3.4087,4.9756,2.5437.1222,4.2108-1.5242,4.285-4.4876.0651-2.597-1.4597-4.513-3.8195-4.438ZM83.0681,68.0366c-.3632.5706-1.1276.6555-1.5076.5274-1.5639-.5272-1.7043-2.6346-1.255-4.9536.1848-.9541,1.1177-1.234,1.8093-1.1231,1.784.2862,1.9001,4.0619.9533,5.5492Z"/>
    <path class="cls-82" d="M114.3192,61.4629c-1.36-.6535-2.8817-.4678-4.0225.2197-1.2.7232-1.6347,2.1297-1.752,3.6169-.2,2.5373,1.1268,4.6307,3.5689,4.6899,2.2542.0546,4.0845-1.7658,4.0367-4.4818-.031-1.7587-.3848-3.3499-1.8311-4.0448ZM112.4531,68.6056c-1.5861.029-2.1389-2.0062-1.7701-4.4729.1448-.968.5746-1.5397,1.4768-1.6542.7021-.0891,1.4468.3144,1.7221,1.2544.7019,2.3969.0894,4.845-1.4288,4.8727Z"/>
    <path class="cls-96" d="M46.586,68.1392c-.2932-.3113-.6823-.8448-.586-1.5386,1.3496-.1009,2.3803-.2896,3.4977-1.0004,1.208-.7685,1.8934-2.7409.6342-3.8666-1.2535-1.1207-3.679-.8711-4.9055.4127-1.6835,1.7623-1.9272,5.1256-.151,6.9002,1.3923,1.3911,4.1652.9845,5.5497.0167-.334-1.8542-2.7973.3949-4.0392-.9239ZM47.3668,62.422c.4072-.148.8956-.0403,1.1021.1089.3176.2293.5721.738.3724,1.4647-.7607,1.0393-1.792,1.4532-2.9331,1.3002-.1842-1.2205.3069-2.4552,1.4586-2.8738Z"/>
  </g>
</svg>